<svg width="277" height="40" viewBox="0 0 277 40" fill="none" xmlns="http://www.w3.org/2000/svg">
<path d="M64.7578 24.957H68.5078C68.3125 26.7539 67.7982 28.362 66.9648 29.7812C66.1315 31.2005 64.9531 32.3268 63.4297 33.1602C61.9062 33.9805 60.0052 34.3906 57.7266 34.3906C56.0599 34.3906 54.543 34.0781 53.1758 33.4531C51.8216 32.8281 50.6562 31.9427 49.6797 30.7969C48.7031 29.638 47.9479 28.2513 47.4141 26.6367C46.8932 25.0091 46.6328 23.1992 46.6328 21.207V18.375C46.6328 16.3828 46.8932 14.5794 47.4141 12.9648C47.9479 11.3372 48.7096 9.94401 49.6992 8.78516C50.7018 7.6263 51.9062 6.73438 53.3125 6.10938C54.7188 5.48438 56.3008 5.17188 58.0586 5.17188C60.207 5.17188 62.0234 5.57552 63.5078 6.38281C64.9922 7.1901 66.1445 8.3099 66.9648 9.74219C67.7982 11.1615 68.3125 12.8086 68.5078 14.6836H64.7578C64.5755 13.3555 64.237 12.2161 63.7422 11.2656C63.2474 10.3021 62.5443 9.5599 61.6328 9.03906C60.7214 8.51823 59.5299 8.25781 58.0586 8.25781C56.7956 8.25781 55.6823 8.4987 54.7188 8.98047C53.7682 9.46224 52.9674 10.1458 52.3164 11.0312C51.6784 11.9167 51.1966 12.9779 50.8711 14.2148C50.5456 15.4518 50.3828 16.8255 50.3828 18.3359V21.207C50.3828 22.6003 50.526 23.9089 50.8125 25.1328C51.112 26.3568 51.5612 27.431 52.1602 28.3555C52.7591 29.2799 53.5208 30.0091 54.4453 30.543C55.3698 31.0638 56.4635 31.3242 57.7266 31.3242C59.3281 31.3242 60.6042 31.0703 61.5547 30.5625C62.5052 30.0547 63.2214 29.3255 63.7031 28.375C64.1979 27.4245 64.5495 26.2852 64.7578 24.957Z" fill="black"/>
<path d="M77.0234 4V34H73.3906V4H77.0234Z" fill="black"/>
<path d="M95.2852 30.3867V19.5078C95.2852 18.6745 95.1159 17.9518 94.7773 17.3398C94.4518 16.7148 93.957 16.2331 93.293 15.8945C92.6289 15.556 91.8086 15.3867 90.832 15.3867C89.9206 15.3867 89.1198 15.543 88.4297 15.8555C87.7526 16.168 87.2188 16.5781 86.8281 17.0859C86.4505 17.5938 86.2617 18.1406 86.2617 18.7266H82.6484C82.6484 17.9714 82.8438 17.2227 83.2344 16.4805C83.625 15.7383 84.1849 15.0677 84.9141 14.4688C85.6562 13.8568 86.5417 13.375 87.5703 13.0234C88.612 12.6589 89.7708 12.4766 91.0469 12.4766C92.5833 12.4766 93.9375 12.737 95.1094 13.2578C96.2943 13.7786 97.2188 14.5664 97.8828 15.6211C98.5599 16.6628 98.8984 17.9714 98.8984 19.5469V29.3906C98.8984 30.0938 98.957 30.8424 99.0742 31.6367C99.2044 32.431 99.3932 33.1146 99.6406 33.6875V34H95.8711C95.6888 33.5833 95.5456 33.0299 95.4414 32.3398C95.3372 31.6367 95.2852 30.9857 95.2852 30.3867ZM95.9102 21.1875L95.9492 23.7266H92.2969C91.2682 23.7266 90.3503 23.8112 89.543 23.9805C88.7357 24.1367 88.0586 24.3776 87.5117 24.7031C86.9648 25.0286 86.5482 25.4388 86.2617 25.9336C85.9753 26.4154 85.832 26.9818 85.832 27.6328C85.832 28.2969 85.9818 28.9023 86.2812 29.4492C86.5807 29.9961 87.0299 30.4323 87.6289 30.7578C88.2409 31.0703 88.9896 31.2266 89.875 31.2266C90.9818 31.2266 91.9583 30.9922 92.8047 30.5234C93.651 30.0547 94.3216 29.4818 94.8164 28.8047C95.3242 28.1276 95.5977 27.4701 95.6367 26.832L97.1797 28.5703C97.0885 29.1172 96.8411 29.7227 96.4375 30.3867C96.0339 31.0508 95.4935 31.6888 94.8164 32.3008C94.1523 32.8997 93.3581 33.401 92.4336 33.8047C91.5221 34.1953 90.4935 34.3906 89.3477 34.3906C87.9154 34.3906 86.6589 34.1107 85.5781 33.5508C84.5104 32.9909 83.6771 32.2422 83.0781 31.3047C82.4922 30.3542 82.1992 29.293 82.1992 28.1211C82.1992 26.9883 82.4206 25.9922 82.8633 25.1328C83.306 24.2604 83.944 23.5378 84.7773 22.9648C85.6107 22.3789 86.6133 21.9362 87.7852 21.6367C88.957 21.3372 90.2656 21.1875 91.7109 21.1875H95.9102Z" fill="black"/>
<path d="M116.887 28.3945C116.887 27.8737 116.77 27.3919 116.535 26.9492C116.314 26.4935 115.852 26.0833 115.148 25.7188C114.458 25.3411 113.417 25.0156 112.023 24.7422C110.852 24.4948 109.79 24.2018 108.84 23.8633C107.902 23.5247 107.102 23.1146 106.438 22.6328C105.786 22.151 105.285 21.5846 104.934 20.9336C104.582 20.2826 104.406 19.5208 104.406 18.6484C104.406 17.8151 104.589 17.0273 104.953 16.2852C105.331 15.543 105.858 14.8854 106.535 14.3125C107.225 13.7396 108.052 13.2904 109.016 12.9648C109.979 12.6393 111.053 12.4766 112.238 12.4766C113.931 12.4766 115.376 12.776 116.574 13.375C117.772 13.974 118.69 14.7747 119.328 15.7773C119.966 16.7669 120.285 17.8672 120.285 19.0781H116.672C116.672 18.4922 116.496 17.9258 116.145 17.3789C115.806 16.819 115.305 16.3568 114.641 15.9922C113.99 15.6276 113.189 15.4453 112.238 15.4453C111.236 15.4453 110.422 15.6016 109.797 15.9141C109.185 16.2135 108.736 16.5977 108.449 17.0664C108.176 17.5352 108.039 18.0299 108.039 18.5508C108.039 18.9414 108.104 19.293 108.234 19.6055C108.378 19.9049 108.625 20.1849 108.977 20.4453C109.328 20.6927 109.823 20.9271 110.461 21.1484C111.099 21.3698 111.913 21.5911 112.902 21.8125C114.634 22.2031 116.06 22.6719 117.18 23.2188C118.299 23.7656 119.133 24.4362 119.68 25.2305C120.227 26.0247 120.5 26.9883 120.5 28.1211C120.5 29.0456 120.305 29.8919 119.914 30.6602C119.536 31.4284 118.983 32.0924 118.254 32.6523C117.538 33.1992 116.678 33.6289 115.676 33.9414C114.686 34.2409 113.573 34.3906 112.336 34.3906C110.474 34.3906 108.898 34.0586 107.609 33.3945C106.32 32.7305 105.344 31.8711 104.68 30.8164C104.016 29.7617 103.684 28.6484 103.684 27.4766H107.316C107.368 28.4661 107.655 29.2539 108.176 29.8398C108.697 30.4128 109.335 30.8229 110.09 31.0703C110.845 31.3047 111.594 31.4219 112.336 31.4219C113.326 31.4219 114.152 31.2917 114.816 31.0312C115.493 30.7708 116.008 30.4128 116.359 29.957C116.711 29.5013 116.887 28.9805 116.887 28.3945Z" fill="black"/>
<path d="M137.551 28.3945C137.551 27.8737 137.434 27.3919 137.199 26.9492C136.978 26.4935 136.516 26.0833 135.812 25.7188C135.122 25.3411 134.081 25.0156 132.688 24.7422C131.516 24.4948 130.454 24.2018 129.504 23.8633C128.566 23.5247 127.766 23.1146 127.102 22.6328C126.451 22.151 125.949 21.5846 125.598 20.9336C125.246 20.2826 125.07 19.5208 125.07 18.6484C125.07 17.8151 125.253 17.0273 125.617 16.2852C125.995 15.543 126.522 14.8854 127.199 14.3125C127.889 13.7396 128.716 13.2904 129.68 12.9648C130.643 12.6393 131.717 12.4766 132.902 12.4766C134.595 12.4766 136.04 12.776 137.238 13.375C138.436 13.974 139.354 14.7747 139.992 15.7773C140.63 16.7669 140.949 17.8672 140.949 19.0781H137.336C137.336 18.4922 137.16 17.9258 136.809 17.3789C136.47 16.819 135.969 16.3568 135.305 15.9922C134.654 15.6276 133.853 15.4453 132.902 15.4453C131.9 15.4453 131.086 15.6016 130.461 15.9141C129.849 16.2135 129.4 16.5977 129.113 17.0664C128.84 17.5352 128.703 18.0299 128.703 18.5508C128.703 18.9414 128.768 19.293 128.898 19.6055C129.042 19.9049 129.289 20.1849 129.641 20.4453C129.992 20.6927 130.487 20.9271 131.125 21.1484C131.763 21.3698 132.577 21.5911 133.566 21.8125C135.298 22.2031 136.724 22.6719 137.844 23.2188C138.964 23.7656 139.797 24.4362 140.344 25.2305C140.891 26.0247 141.164 26.9883 141.164 28.1211C141.164 29.0456 140.969 29.8919 140.578 30.6602C140.201 31.4284 139.647 32.0924 138.918 32.6523C138.202 33.1992 137.342 33.6289 136.34 33.9414C135.35 34.2409 134.237 34.3906 133 34.3906C131.138 34.3906 129.562 34.0586 128.273 33.3945C126.984 32.7305 126.008 31.8711 125.344 30.8164C124.68 29.7617 124.348 28.6484 124.348 27.4766H127.98C128.033 28.4661 128.319 29.2539 128.84 29.8398C129.361 30.4128 129.999 30.8229 130.754 31.0703C131.509 31.3047 132.258 31.4219 133 31.4219C133.99 31.4219 134.816 31.2917 135.48 31.0312C136.158 30.7708 136.672 30.4128 137.023 29.957C137.375 29.5013 137.551 28.9805 137.551 28.3945Z" fill="black"/>
<path d="M149.836 12.8672V34H146.203V12.8672H149.836ZM145.93 7.26172C145.93 6.67578 146.105 6.18099 146.457 5.77734C146.822 5.3737 147.355 5.17188 148.059 5.17188C148.749 5.17188 149.276 5.3737 149.641 5.77734C150.018 6.18099 150.207 6.67578 150.207 7.26172C150.207 7.82161 150.018 8.30339 149.641 8.70703C149.276 9.09766 148.749 9.29297 148.059 9.29297C147.355 9.29297 146.822 9.09766 146.457 8.70703C146.105 8.30339 145.93 7.82161 145.93 7.26172Z" fill="black"/>
<path d="M160.461 34H156.848V11.0312C156.848 9.42969 157.16 8.07552 157.785 6.96875C158.41 5.86198 159.302 5.02214 160.461 4.44922C161.62 3.8763 162.993 3.58984 164.582 3.58984C165.52 3.58984 166.438 3.70703 167.336 3.94141C168.234 4.16276 169.159 4.44271 170.109 4.78125L169.504 7.82812C168.905 7.59375 168.208 7.3724 167.414 7.16406C166.633 6.94271 165.773 6.83203 164.836 6.83203C163.286 6.83203 162.167 7.18359 161.477 7.88672C160.799 8.57682 160.461 9.625 160.461 11.0312V34ZM164.777 12.8672V15.6406H153.508V12.8672H164.777ZM171.887 12.8672V34H168.273V12.8672H171.887Z" fill="black"/>
<path d="M186.281 31.4219C187.141 31.4219 187.935 31.2461 188.664 30.8945C189.393 30.543 189.992 30.0612 190.461 29.4492C190.93 28.8242 191.197 28.1146 191.262 27.3203H194.699C194.634 28.5703 194.211 29.7357 193.43 30.8164C192.661 31.8841 191.652 32.75 190.402 33.4141C189.152 34.0651 187.779 34.3906 186.281 34.3906C184.693 34.3906 183.306 34.1107 182.121 33.5508C180.949 32.9909 179.973 32.2227 179.191 31.2461C178.423 30.2695 177.844 29.1497 177.453 27.8867C177.076 26.6107 176.887 25.263 176.887 23.8438V23.0234C176.887 21.6042 177.076 20.263 177.453 19C177.844 17.724 178.423 16.5977 179.191 15.6211C179.973 14.6445 180.949 13.8763 182.121 13.3164C183.306 12.7565 184.693 12.4766 186.281 12.4766C187.935 12.4766 189.38 12.8151 190.617 13.4922C191.854 14.1562 192.824 15.0677 193.527 16.2266C194.243 17.3724 194.634 18.6745 194.699 20.1328H191.262C191.197 19.2604 190.949 18.4727 190.52 17.7695C190.103 17.0664 189.53 16.5065 188.801 16.0898C188.085 15.6602 187.245 15.4453 186.281 15.4453C185.174 15.4453 184.243 15.6667 183.488 16.1094C182.746 16.5391 182.154 17.125 181.711 17.8672C181.281 18.5964 180.969 19.4102 180.773 20.3086C180.591 21.194 180.5 22.099 180.5 23.0234V23.8438C180.5 24.7682 180.591 25.6797 180.773 26.5781C180.956 27.4766 181.262 28.2904 181.691 29.0195C182.134 29.7487 182.727 30.3346 183.469 30.7773C184.224 31.207 185.161 31.4219 186.281 31.4219Z" fill="black"/>
<path d="M211.223 30.3867V19.5078C211.223 18.6745 211.053 17.9518 210.715 17.3398C210.389 16.7148 209.895 16.2331 209.23 15.8945C208.566 15.556 207.746 15.3867 206.77 15.3867C205.858 15.3867 205.057 15.543 204.367 15.8555C203.69 16.168 203.156 16.5781 202.766 17.0859C202.388 17.5938 202.199 18.1406 202.199 18.7266H198.586C198.586 17.9714 198.781 17.2227 199.172 16.4805C199.562 15.7383 200.122 15.0677 200.852 14.4688C201.594 13.8568 202.479 13.375 203.508 13.0234C204.549 12.6589 205.708 12.4766 206.984 12.4766C208.521 12.4766 209.875 12.737 211.047 13.2578C212.232 13.7786 213.156 14.5664 213.82 15.6211C214.497 16.6628 214.836 17.9714 214.836 19.5469V29.3906C214.836 30.0938 214.895 30.8424 215.012 31.6367C215.142 32.431 215.331 33.1146 215.578 33.6875V34H211.809C211.626 33.5833 211.483 33.0299 211.379 32.3398C211.275 31.6367 211.223 30.9857 211.223 30.3867ZM211.848 21.1875L211.887 23.7266H208.234C207.206 23.7266 206.288 23.8112 205.48 23.9805C204.673 24.1367 203.996 24.3776 203.449 24.7031C202.902 25.0286 202.486 25.4388 202.199 25.9336C201.913 26.4154 201.77 26.9818 201.77 27.6328C201.77 28.2969 201.919 28.9023 202.219 29.4492C202.518 29.9961 202.967 30.4323 203.566 30.7578C204.178 31.0703 204.927 31.2266 205.812 31.2266C206.919 31.2266 207.896 30.9922 208.742 30.5234C209.589 30.0547 210.259 29.4818 210.754 28.8047C211.262 28.1276 211.535 27.4701 211.574 26.832L213.117 28.5703C213.026 29.1172 212.779 29.7227 212.375 30.3867C211.971 31.0508 211.431 31.6888 210.754 32.3008C210.09 32.8997 209.296 33.401 208.371 33.8047C207.46 34.1953 206.431 34.3906 205.285 34.3906C203.853 34.3906 202.596 34.1107 201.516 33.5508C200.448 32.9909 199.615 32.2422 199.016 31.3047C198.43 30.3542 198.137 29.293 198.137 28.1211C198.137 26.9883 198.358 25.9922 198.801 25.1328C199.243 24.2604 199.882 23.5378 200.715 22.9648C201.548 22.3789 202.551 21.9362 203.723 21.6367C204.895 21.3372 206.203 21.1875 207.648 21.1875H211.848Z" fill="black"/>
<path d="M233.84 29.8984V4H237.473V34H234.152L233.84 29.8984ZM219.621 23.668V23.2578C219.621 21.6432 219.816 20.1784 220.207 18.8633C220.611 17.5352 221.177 16.3958 221.906 15.4453C222.648 14.4948 223.527 13.7656 224.543 13.2578C225.572 12.737 226.717 12.4766 227.98 12.4766C229.309 12.4766 230.467 12.7109 231.457 13.1797C232.46 13.6354 233.306 14.306 233.996 15.1914C234.699 16.0638 235.253 17.1185 235.656 18.3555C236.06 19.5924 236.34 20.9922 236.496 22.5547V24.3516C236.353 25.901 236.073 27.2943 235.656 28.5312C235.253 29.7682 234.699 30.8229 233.996 31.6953C233.306 32.5677 232.46 33.2383 231.457 33.707C230.454 34.1628 229.283 34.3906 227.941 34.3906C226.704 34.3906 225.572 34.1237 224.543 33.5898C223.527 33.056 222.648 32.3073 221.906 31.3438C221.177 30.3802 220.611 29.2474 220.207 27.9453C219.816 26.6302 219.621 25.2044 219.621 23.668ZM223.254 23.2578V23.668C223.254 24.7227 223.358 25.7122 223.566 26.6367C223.788 27.5612 224.126 28.375 224.582 29.0781C225.038 29.7812 225.617 30.3346 226.32 30.7383C227.023 31.1289 227.863 31.3242 228.84 31.3242C230.038 31.3242 231.021 31.0703 231.789 30.5625C232.57 30.0547 233.195 29.3841 233.664 28.5508C234.133 27.7174 234.497 26.8125 234.758 25.8359V21.1289C234.602 20.4128 234.374 19.7227 234.074 19.0586C233.788 18.3815 233.41 17.7826 232.941 17.2617C232.486 16.7279 231.919 16.3047 231.242 15.9922C230.578 15.6797 229.79 15.5234 228.879 15.5234C227.889 15.5234 227.036 15.7318 226.32 16.1484C225.617 16.5521 225.038 17.112 224.582 17.8281C224.126 18.5312 223.788 19.3516 223.566 20.2891C223.358 21.2135 223.254 22.2031 223.254 23.2578Z" fill="black"/>
<path d="M242.141 23.668V23.2188C242.141 21.6953 242.362 20.2826 242.805 18.9805C243.247 17.6654 243.885 16.526 244.719 15.5625C245.552 14.5859 246.561 13.8307 247.746 13.2969C248.931 12.75 250.259 12.4766 251.73 12.4766C253.215 12.4766 254.549 12.75 255.734 13.2969C256.932 13.8307 257.948 14.5859 258.781 15.5625C259.628 16.526 260.272 17.6654 260.715 18.9805C261.158 20.2826 261.379 21.6953 261.379 23.2188V23.668C261.379 25.1914 261.158 26.6042 260.715 27.9062C260.272 29.2083 259.628 30.3477 258.781 31.3242C257.948 32.2878 256.939 33.043 255.754 33.5898C254.582 34.1237 253.254 34.3906 251.77 34.3906C250.285 34.3906 248.951 34.1237 247.766 33.5898C246.581 33.043 245.565 32.2878 244.719 31.3242C243.885 30.3477 243.247 29.2083 242.805 27.9062C242.362 26.6042 242.141 25.1914 242.141 23.668ZM245.754 23.2188V23.668C245.754 24.7227 245.878 25.7188 246.125 26.6562C246.372 27.5807 246.743 28.401 247.238 29.1172C247.746 29.8333 248.378 30.3997 249.133 30.8164C249.888 31.2201 250.767 31.4219 251.77 31.4219C252.759 31.4219 253.625 31.2201 254.367 30.8164C255.122 30.3997 255.747 29.8333 256.242 29.1172C256.737 28.401 257.108 27.5807 257.355 26.6562C257.616 25.7188 257.746 24.7227 257.746 23.668V23.2188C257.746 22.1771 257.616 21.194 257.355 20.2695C257.108 19.332 256.73 18.5052 256.223 17.7891C255.728 17.0599 255.103 16.487 254.348 16.0703C253.605 15.6536 252.733 15.4453 251.73 15.4453C250.741 15.4453 249.868 15.6536 249.113 16.0703C248.371 16.487 247.746 17.0599 247.238 17.7891C246.743 18.5052 246.372 19.332 246.125 20.2695C245.878 21.194 245.754 22.1771 245.754 23.2188Z" fill="black"/>
<path d="M269.523 16.1875V34H265.91V12.8672H269.426L269.523 16.1875ZM276.125 12.75L276.105 16.1094C275.806 16.0443 275.52 16.0052 275.246 15.9922C274.986 15.9661 274.686 15.9531 274.348 15.9531C273.514 15.9531 272.779 16.0833 272.141 16.3438C271.503 16.6042 270.962 16.9688 270.52 17.4375C270.077 17.9062 269.725 18.4661 269.465 19.1172C269.217 19.7552 269.055 20.4583 268.977 21.2266L267.961 21.8125C267.961 20.5365 268.085 19.3385 268.332 18.2188C268.592 17.099 268.99 16.1094 269.523 15.25C270.057 14.3776 270.734 13.7005 271.555 13.2188C272.388 12.724 273.378 12.4766 274.523 12.4766C274.784 12.4766 275.083 12.5091 275.422 12.5742C275.76 12.6263 275.995 12.6849 276.125 12.75Z" fill="black"/>
<mask id="mask0_8_21" style="mask-type:alpha" maskUnits="userSpaceOnUse" x="0" y="0" width="40" height="40">
<path d="M0 0H40V40H0V0Z" fill="#D9D9D9"/>
</mask>
<g mask="url(#mask0_8_21)">
<path d="M8.33331 36.6667C6.94442 36.6667 5.76387 36.1806 4.79165 35.2083C3.81942 34.2361 3.33331 33.0556 3.33331 31.6667V8.33334C3.33331 6.94445 3.81942 5.7639 4.79165 4.79168C5.76387 3.81945 6.94442 3.33334 8.33331 3.33334H31.6666C33.0555 3.33334 34.2361 3.81945 35.2083 4.79168C36.1805 5.7639 36.6666 6.94445 36.6666 8.33334V31.6667C36.6666 33.0556 36.1805 34.2361 35.2083 35.2083C34.2361 36.1806 33.0555 36.6667 31.6666 36.6667H8.33331ZM8.33331 33.3333H31.6666C32.1389 33.3333 32.5344 33.1733 32.8533 32.8533C33.1733 32.5345 33.3333 32.1389 33.3333 31.6667V8.33334C33.3333 7.86112 33.1733 7.46501 32.8533 7.14501C32.5344 6.82612 32.1389 6.66668 31.6666 6.66668H8.33331C7.86109 6.66668 7.46498 6.82612 7.14498 7.14501C6.82609 7.46501 6.66665 7.86112 6.66665 8.33334V31.6667C6.66665 32.1389 6.82609 32.5345 7.14498 32.8533C7.46498 33.1733 7.86109 33.3333 8.33331 33.3333ZM9.99998 30L16.6666 23.3333L19.6666 26.2917L23.3333 21.6667L30 30H9.99998ZM13.3333 16.6667C12.4166 16.6667 11.6322 16.34 10.98 15.6867C10.3266 15.0345 9.99998 14.25 9.99998 13.3333C9.99998 12.4167 10.3266 11.6322 10.98 10.98C11.6322 10.3267 12.4166 10 13.3333 10C14.25 10 15.035 10.3267 15.6883 10.98C16.3405 11.6322 16.6666 12.4167 16.6666 13.3333C16.6666 14.25 16.3405 15.0345 15.6883 15.6867C15.035 16.34 14.25 16.6667 13.3333 16.6667Z" fill="#1C1B1F"/>
</g>
</svg>
