<svg width="100" height="101" viewBox="0 0 100 101" fill="none" xmlns="http://www.w3.org/2000/svg">
<mask id="mask0_9_82" style="mask-type:alpha" maskUnits="userSpaceOnUse" x="0" y="0" width="100" height="101">
<rect y="0.0746918" width="100" height="100" fill="#D9D9D9"/>
</mask>
<g mask="url(#mask0_9_82)">
<path d="M37.5 58.408H79.1667L64.7917 39.658L55.2083 52.158L48.75 43.8247L37.5 58.408ZM33.3333 75.0747C31.0417 75.0747 29.0806 74.2594 27.45 72.6289C25.8167 70.9955 25 69.033 25 66.7414V16.7414C25 14.4497 25.8167 12.4872 27.45 10.8539C29.0806 9.2233 31.0417 8.40802 33.3333 8.40802H83.3333C85.625 8.40802 87.5875 9.2233 89.2208 10.8539C90.8514 12.4872 91.6667 14.4497 91.6667 16.7414V66.7414C91.6667 69.033 90.8514 70.9955 89.2208 72.6289C87.5875 74.2594 85.625 75.0747 83.3333 75.0747H33.3333ZM33.3333 66.7414H83.3333V16.7414H33.3333V66.7414ZM16.6667 91.7414C14.375 91.7414 12.4139 90.9261 10.7833 89.2955C9.15 87.6622 8.33333 85.6997 8.33333 83.408V25.0747H16.6667V83.408H75V91.7414H16.6667Z" fill="#1C1B1F"/>
</g>
</svg>
