<svg width="20" height="21" viewBox="0 0 20 21" fill="none" xmlns="http://www.w3.org/2000/svg">
<mask id="mask0_9_85" style="mask-type:alpha" maskUnits="userSpaceOnUse" x="0" y="0" width="20" height="21">
<path d="M0 0.5H20V20.5H0V0.5Z" fill="#D9D9D9"/>
</mask>
<g mask="url(#mask0_9_85)">
<path d="M4.16667 18.8333C3.47222 18.8333 2.88195 18.5903 2.39583 18.1042C1.90972 17.618 1.66667 17.0278 1.66667 16.3333V4.66666C1.66667 3.97221 1.90972 3.38193 2.39583 2.89582C2.88195 2.40971 3.47222 2.16666 4.16667 2.16666H15.8333C16.5278 2.16666 17.1181 2.40971 17.6042 2.89582C18.0903 3.38193 18.3333 3.97221 18.3333 4.66666V16.3333C18.3333 17.0278 18.0903 17.618 17.6042 18.1042C17.1181 18.5903 16.5278 18.8333 15.8333 18.8333H4.16667ZM4.16667 17.1667H15.8333C16.0694 17.1667 16.2672 17.0867 16.4267 16.9267C16.5867 16.7672 16.6667 16.5694 16.6667 16.3333V4.66666C16.6667 4.43055 16.5867 4.23249 16.4267 4.07249C16.2672 3.91305 16.0694 3.83332 15.8333 3.83332H4.16667C3.93056 3.83332 3.7325 3.91305 3.5725 4.07249C3.41306 4.23249 3.33333 4.43055 3.33333 4.66666V16.3333C3.33333 16.5694 3.41306 16.7672 3.5725 16.9267C3.7325 17.0867 3.93056 17.1667 4.16667 17.1667ZM5 15.5L8.33333 12.1667L9.83333 13.6458L11.6667 11.3333L15 15.5H5ZM6.66667 8.83332C6.20833 8.83332 5.81611 8.66999 5.49 8.34332C5.16333 8.01721 5 7.62499 5 7.16666C5 6.70832 5.16333 6.3161 5.49 5.98999C5.81611 5.66332 6.20833 5.49999 6.66667 5.49999C7.125 5.49999 7.5175 5.66332 7.84417 5.98999C8.17028 6.3161 8.33333 6.70832 8.33333 7.16666C8.33333 7.62499 8.17028 8.01721 7.84417 8.34332C7.5175 8.66999 7.125 8.83332 6.66667 8.83332Z" fill="white"/>
</g>
</svg>
